<?xml version="1.0" encoding="UTF-8"?>
<svg id="Layer_2" data-name="Layer 2" xmlns="http://www.w3.org/2000/svg" width="438" height="86" xmlns:xlink="http://www.w3.org/1999/xlink" viewBox="0 0 438 86">
  <defs>
    <style>
      .cls-1 {
        filter: url(#drop-shadow-5);
      }

      .cls-2 {
        filter: url(#drop-shadow-2);
      }

      .cls-3 {
        filter: url(#drop-shadow-3);
      }

      .cls-4 {
        fill: #774535;
      }

      .cls-4, .cls-5, .cls-6 {
        stroke-width: 0px;
      }

      .cls-5 {
        fill: #fff;
      }

      .cls-6 {
        fill: #ef554a;
      }
    </style>
    <filter id="drop-shadow-2" filterUnits="userSpaceOnUse">
      <feOffset dx="1.8" dy="1.8"/>
      <feGaussianBlur result="blur" stdDeviation="1.44"/>
      <feFlood flood-color="#774535" flood-opacity=".5"/>
      <feComposite in2="blur" operator="in"/>
      <feComposite in="SourceGraphic"/>
    </filter>
    <filter id="drop-shadow-3" filterUnits="userSpaceOnUse">
      <feOffset dx="0" dy="1.8"/>
      <feGaussianBlur result="blur-2" stdDeviation="1.44"/>
      <feFlood flood-color="#774637" flood-opacity=".5"/>
      <feComposite in2="blur-2" operator="in"/>
      <feComposite in="SourceGraphic"/>
    </filter>
    <filter id="drop-shadow-5" filterUnits="userSpaceOnUse">
      <feOffset dx="1.8" dy="1.8"/>
      <feGaussianBlur result="blur-3" stdDeviation="1.44"/>
      <feFlood flood-color="#f0564b" flood-opacity=".5"/>
      <feComposite in2="blur-3" operator="in"/>
      <feComposite in="SourceGraphic"/>
    </filter>
  </defs>
  <g id="Layer_1-2" data-name="Layer 1">
    <g>
      <g class="cls-2">
        <path class="cls-4" d="M46.98064,12.62469l-2.23584,42.11035-16.27246,1.49023-8.69531-22.54541-1.3667,22.97998H4.43621l1.11768-44.03516,15.52734-.74512,10.74463,22.35938.49707-21.11719,14.65771-.49707Z"/>
        <path class="cls-4" d="M66.26531,13.4323l-3.41602,42.2959-13.10498.68359V14.30193l16.521-.86963Z"/>
        <path class="cls-4" d="M98.84148,13.49432l-1.73926,13.10498c-.60059-.16553-1.20068-.2793-1.80127-.34131-.60059-.0625-1.20068-.09326-1.80127-.09326-1.53223,0-2.9917.20166-4.37842.60547-1.38721.40381-2.61377,1.02002-3.68018,1.84766-1.06641.82812-1.91504,1.86328-2.54639,3.10547-.63184,1.24219-.94678,2.70166-.94678,4.37891,0,1.07666.17041,2.0083.51221,2.79492.34131.78662.82275,1.43896,1.44385,1.95605.62109.51807,1.35596.90088,2.20508,1.14893.84863.24854,1.78027.37354,2.79492.37354.76562,0,1.56299-.08301,2.39111-.24902.82764-.16553,1.646-.38281,2.45312-.65234.80762-.26855,1.59424-.5791,2.36035-.93164.76562-.35156,1.46973-.71387,2.11182-1.08691l-1.24219,14.5957c-.80762.41406-1.68262.78125-2.62451,1.10254s-1.90967.60059-2.90332.83887c-.99365.2373-1.9873.41895-2.98145.54297-.99365.12402-1.94629.18652-2.85693.18652-2.62939,0-5.08252-.48633-7.35986-1.45996-2.27734-.97266-4.25439-2.30762-5.93115-4.00586-1.67725-1.69727-2.99707-3.7002-3.95947-6.00879-.96289-2.30859-1.44434-4.79785-1.44434-7.46875,0-3.54004.50732-6.87842,1.52197-10.01514,1.01416-3.13623,2.50439-5.88477,4.47168-8.24463,1.9668-2.36035,4.4043-4.22363,7.31348-5.58984,2.9082-1.3667,6.25732-2.0498,10.0459-2.0498,1.42871,0,2.89307.11426,4.39404.3418,1.50098.22803,2.89307.65186,4.17725,1.27295Z"/>
        <path class="cls-4" d="M130.20623,12.37664c-.12402,1.94629-.23828,3.87158-.34131,5.77588-.104,1.90527-.23828,3.83057-.40381,5.77637l-13.16699.68311-.31055,3.9126h9.25391l-.68311,9.62695-9.31641.31055-.31055,4.53467h13.16699c-.12402,2.27734-.25342,4.53906-.38818,6.78516s-.25342,4.49805-.35693,6.75391l-26.76904.62109.99414-44.78027h28.63184Z"/>
      </g>
      <g class="cls-3">
        <path class="cls-5" d="M161.116,47.56073l-7.70141.99418-.932-3.50972h-3.54015l-.7759,3.50972-7.91903-.77656,6.18004-20.68261,8.63275-.43458,6.05569,20.89957ZM151.92365,40.2939l-1.18005-5.40349-1.14896,5.40349h2.32901Z"/>
        <path class="cls-5" d="M180.71116,41.03937c0,1.17013-.01257,2.32702-.03836,3.47069s-.06482,2.29527-.11642,3.45482l-8.94363-.15544c.31023-1.83225.57944-3.66186.80698-5.48882s.34198-3.67244.34198-5.53578c0-.13428-.00529-.3519-.01588-.6522-.00992-.29964-.03109-.63897-.06218-1.01667s-.07475-.76597-.13163-1.16484c-.05689-.3982-.13494-.76333-.23283-1.09472-.09856-.33073-.21762-.60259-.35719-.81492s-.30824-.31816-.5047-.31816c-.3519,0-.64956.10319-.89297.31023s-.44516.47361-.60524.79971c-.16074.3261-.28774.69123-.38034,1.09472-.09327.40349-.16338.80765-.20968,1.21114-.04696.40349-.07805.78383-.09327,1.14102-.01588.35719-.02315.65022-.02315.87776-.05226,1.83225-.09327,3.65127-.12435,5.45773s-.07276,3.63077-.12435,5.47294l-7.91903.34198c.20704-3.65392.40614-7.28733.59796-10.90024.19116-3.61225.34396-7.24566.45839-10.90024l7.32834-.3724-.06218,2.48445c.28972-.3519.60325-.68329.93994-.99418.33602-.31023.69586-.5768,1.07885-.79971.38299-.22225.78912-.3982,1.21908-.52785.42929-.12899.88239-.19381,1.35864-.19381.87975,0,1.65101.14486,2.31313.43458.66279.28972,1.23164.68329,1.7079,1.18005s.87511,1.0848,1.19592,1.76214c.32081.67866.57944,1.40032.77656,2.16629.19645.76597.34661,1.56568.44979,2.39912.10385.83344.1733,1.65366.20968,2.46064.03638.80765.05424,1.58949.05424,2.34488v2.06509Z"/>
        <path class="cls-5" d="M199.76326,36.56789c0,1.44926-.18587,2.74838-.55894,3.89734-.3724,1.14896-.89297,2.16563-1.56039,3.05066s-1.46249,1.63844-2.38325,2.25956c-.92142.62111-1.93081,1.1311-3.02817,1.5293-1.09737.39886-2.26419.69123-3.50112.8771-1.23693.18653-2.5076.2798-3.81201.2798-.48684,0-.96243-.01323-1.42876-.03903-.46567-.0258-.94192-.06482-1.4281-.11642l.43458-20.21628c1.13838-.36248,2.31115-.61847,3.517-.76862s2.40375-.22556,3.59439-.22556c1.48035,0,2.84164.2077,4.08387.62111,1.24223.41408,2.3138,1.02262,3.21405,1.82497.90091.80235,1.60206,1.79058,2.10411,2.96534s.75274,2.52877.75274,4.06072ZM189.205,42.53031c.62111-.09327,1.18799-.28244,1.69996-.56687.51263-.28443.95515-.63699,1.32756-1.05569.37306-.41937.66014-.89562.86189-1.42876s.30295-1.10001.30295-1.69996c0-.59002-.06218-1.14168-.18653-1.65366-.12435-.51263-.3261-.9578-.60524-1.33549-.2798-.3777-.64691-.678-1.10266-.90091-.45575-.22225-1.01468-.34396-1.67681-.36447l-.62111,9.00581Z"/>
      </g>
      <g class="cls-1">
        <path class="cls-6" d="M244.49969,12.75018l-.31055,13.16699-9.25391.37256-2.36035,29.43945-13.10547.68359.0625-29.43994-9.25391.49707.37256-14.65771,33.84912-.06201Z"/>
        <path class="cls-6" d="M283.37957,35.23357c0,1.88428-.21777,3.70068-.65234,5.4502s-1.06055,3.39014-1.87891,4.92236c-.81738,1.53223-1.81152,2.93457-2.98047,4.20801-1.16992,1.27246-2.48438,2.36523-3.94434,3.27539-1.45996.91113-3.04883,1.62012-4.7666,2.12793-1.71875.50684-3.54004.76074-5.46582.76074-1.86328,0-3.63867-.23828-5.32617-.71484-1.6875-.47559-3.26562-1.14355-4.73535-2.00293-1.4707-.8584-2.80078-1.89355-3.99023-3.10547-1.19141-1.21094-2.20508-2.55664-3.04395-4.03711-.83789-1.47949-1.49023-3.06836-1.95605-4.7666-.46582-1.69727-.69922-3.46729-.69922-5.31055,0-1.80078.21777-3.56592.65234-5.29443s1.06055-3.35889,1.87891-4.89111c.81738-1.53174,1.80566-2.93945,2.96582-4.22363,1.15918-1.2832,2.45801-2.39111,3.89746-3.32275,1.43848-.93164,2.99609-1.65625,4.67383-2.17383,1.67676-.51709,3.44629-.77637,5.30957-.77637,3.00195,0,5.74023.46582,8.21387,1.39746s4.58594,2.26221,6.33594,3.99072c1.74902,1.72852,3.10547,3.81934,4.06738,6.27295.96289,2.45312,1.44434,5.19141,1.44434,8.21387ZM269.59148,36.0407c0-.88965-.12988-1.75439-.38867-2.59277s-.63574-1.58398-1.13281-2.23584c-.49707-.65234-1.11328-1.18018-1.84766-1.58398-.73535-.40381-1.5791-.60547-2.53125-.60547-.97363,0-1.84277.17627-2.6084.52783-.7666.35254-1.42383.8335-1.97168,1.44385-.54883.61133-.96875,1.3252-1.25781,2.14307-.29102.81787-.43555,1.68213-.43555,2.59277,0,.86963.125,1.73926.37305,2.60889s.62109,1.65625,1.11816,2.35986c.49707.7041,1.1123,1.27344,1.84766,1.70801.73438.43555,1.58887.65234,2.56152.65234.97363,0,1.84766-.19141,2.62402-.57422.77637-.3833,1.43359-.90088,1.97266-1.55322.53809-.65186.95215-1.40234,1.24219-2.25146.28906-.84863.43457-1.72803.43457-2.63965Z"/>
        <path class="cls-6" d="M323.34637,54.48699l-15.40234,1.9873-1.86328-7.01758h-7.08105l-1.55273,7.01758-15.83691-1.55273,12.35938-41.36426,17.26562-.86914,12.11133,41.79883ZM304.96258,39.95379l-2.36035-10.80713-2.29785,10.80713h4.6582Z"/>
        <path class="cls-6" d="M355.79852,40.63689c0,2.8374-.49219,5.31592-1.47559,7.43799s-2.3291,3.88672-4.03711,5.29395c-1.70801,1.4082-3.70605,2.46484-5.99316,3.16797-2.28809.70312-4.74609,1.05566-7.37598,1.05566-1.01367,0-2.12695-.13477-3.33789-.40332s-2.4375-.60547-3.67969-1.00977c-1.24219-.40332-2.43848-.83789-3.58691-1.30371-1.14941-.46582-2.16895-.90527-3.05859-1.32031l1.36621-12.79395c1.75879,1.05566,3.71094,1.8584,5.85352,2.40625,2.14258.54883,4.24902.82324,6.31934.82324.39355,0,.87012-.01562,1.42871-.04688.55859-.03027,1.0918-.12402,1.59961-.2793.50684-.15527.93652-.3877,1.28809-.69824.35254-.31055.52832-.75586.52832-1.33594,0-.39307-.12402-.72949-.37305-1.00928-.24805-.2793-.56934-.50684-.96191-.68311-.39355-.17578-.83887-.31055-1.33594-.40381-.49707-.09277-.9834-.16016-1.45898-.20166-.47656-.0415-.92188-.06201-1.33594-.06201h-.99316c-1.78125,0-3.40039-.31055-4.86035-.93164s-2.71191-1.48535-3.75781-2.59326c-1.04492-1.10742-1.8584-2.42236-2.4375-3.94385-.58008-1.52148-.86914-3.17236-.86914-4.95312,0-2.44287.49121-4.63184,1.47461-6.56787.9834-1.93555,2.29785-3.58154,3.94434-4.93799,1.64551-1.35547,3.53418-2.396,5.66699-3.12061,2.13184-.72461,4.33691-1.08691,6.61426-1.08691,1.01465,0,2.06055.03613,3.13672.1084,1.07617.07275,2.14746.20215,3.21387.38818,1.06641.18652,2.10645.4248,3.12109.71436,1.01465.29004,1.97754.65234,2.88867,1.08691l-1.18066,12.60791c-1.4082-.47559-2.88281-.87402-4.4248-1.19531-1.54297-.3208-3.04883-.48145-4.51855-.48145-.26953,0-.61621.00537-1.04004.01562-.4248.01074-.87012.0415-1.33594.09326s-.93652.12939-1.41309.23291c-.47559.10352-.90039.24316-1.27246.41895-.37305.17627-.67383.40918-.90137.69873-.22754.29004-.33105.63184-.31055,1.0249.02051.45557.19141.82275.5127,1.10254.32129.2793.73438.49658,1.24219.65186.50684.15527,1.06641.26416,1.67676.32617s1.21582.09863,1.81738.10889c.59961.01074,1.15918.01074,1.67676,0,.5166-.01025.94141.00537,1.27344.04639,1.65527.104,3.14648.45557,4.47168,1.05615,1.32422.60059,2.44727,1.39697,3.36914,2.39111.9209.99365,1.625,2.1792,2.11133,3.55566.48633,1.37695.73047,2.89307.73047,4.54932Z"/>
        <path class="cls-6" d="M389.86492,12.75018l-.31055,13.16699-9.25391.37256-2.36035,29.43945-13.10449.68359.06152-29.43994-9.25391.49707.37207-14.65771,33.84961-.06201Z"/>
        <path class="cls-6" d="M431.47723,15.11004l-17.0791,23.8501-.80762,19.43994h-14.71973l.37207-19.31592-8.88086-23.04248,15.83691-1.9873,2.48438,13.41553,7.88867-13.41553,14.90527,1.05566Z"/>
      </g>
    </g>
  </g>
</svg>